<?xml version="1.0" standalone="no"?>
<!DOCTYPE svg PUBLIC "-//W3C//DTD SVG 20010904//EN"
 "http://www.w3.org/TR/2001/REC-SVG-20010904/DTD/svg10.dtd">
<svg version="1.0" xmlns="http://www.w3.org/2000/svg"
 width="763.000000pt" height="443.000000pt" viewBox="0 0 763.000000 443.000000"
 preserveAspectRatio="xMidYMid meet">
<metadata>
Created by potrace 1.16, written by Peter Selinger 2001-2019
</metadata>
<g transform="translate(0.000000,443.000000) scale(0.100000,-0.100000)"
fill="#000000" stroke="none">
<path d="M930 3586 l0 -584 80 39 c43 21 85 39 92 39 8 0 23 7 35 15 19 13 25
13 52 -3 17 -9 31 -22 31 -28 0 -6 7 -17 15 -24 12 -10 16 -9 21 4 9 23 154
24 154 1 0 -11 -11 -15 -40 -15 -42 0 -50 -9 -26 -30 8 -6 20 -28 26 -48 6
-20 16 -47 22 -59 6 -12 8 -39 6 -60 -4 -24 -1 -46 7 -57 9 -11 12 -35 9 -63
-2 -29 2 -55 11 -72 8 -14 19 -38 24 -52 7 -18 19 -28 40 -32 35 -7 37 -15 17
-80 -16 -53 -2 -53 20 -1 15 35 34 46 34 19 0 -19 28 -19 95 -1 43 11 47 14
28 20 -27 9 -30 21 -7 30 20 8 9 26 -17 26 -23 0 -24 13 -3 35 12 11 13 19 5
29 -13 15 -5 26 21 26 24 0 23 12 -2 35 -18 16 -20 16 -20 2 0 -10 -8 -17 -19
-17 -10 0 -21 -9 -24 -20 -3 -11 -10 -20 -16 -20 -14 0 -14 17 -1 25 22 13 8
25 -30 25 -39 0 -40 1 -40 34 0 24 7 39 20 49 12 8 20 21 18 28 -2 9 8 15 30
17 29 3 32 6 30 30 -2 15 -11 33 -20 40 -10 7 -18 20 -18 28 0 8 -7 26 -16 39
-18 28 -12 45 17 45 11 0 17 5 14 10 -15 25 10 26 72 3 62 -22 82 -38 142
-109 10 -12 15 -13 21 -4 10 16 30 4 30 -17 0 -9 -6 -21 -14 -27 -7 -6 -16
-28 -19 -48 -5 -32 -3 -38 12 -38 12 0 17 8 16 28 0 22 5 28 28 30 22 3 27 8
27 30 0 15 -7 38 -16 50 -8 12 -13 31 -9 42 7 23 -29 76 -57 83 -11 3 -17 10
-13 16 9 16 35 13 35 -4 0 -9 6 -12 15 -8 21 8 54 -24 76 -73 10 -23 26 -47
34 -54 10 -8 15 -31 15 -70 0 -46 4 -62 24 -83 21 -23 25 -24 39 -10 17 17 41
8 33 -13 -3 -8 4 -23 16 -34 19 -17 19 -20 5 -26 -10 -3 -29 -3 -45 1 -37 10
-65 11 -81 1 -7 -5 -18 -3 -24 3 -16 16 -27 13 -27 -7 0 -27 7 -31 48 -21 42
9 44 8 33 -10 -5 -7 -20 -14 -34 -14 -33 -2 -24 -15 16 -22 36 -7 122 -82 132
-116 19 -59 36 69 21 151 -5 23 -1 53 12 88 24 66 32 74 32 32 0 -28 2 -31 15
-20 13 11 15 8 15 -15 0 -23 -2 -25 -14 -16 -17 14 -21 -10 -30 -157 -3 -46
-9 -88 -13 -95 -4 -7 -6 -23 -5 -37 4 -39 -18 -63 -51 -55 -20 5 -37 24 -64
74 -20 36 -63 99 -95 140 -32 40 -58 83 -58 93 0 14 -5 18 -16 14 -9 -3 -29
-6 -46 -6 -28 0 -29 -2 -23 -31 4 -17 19 -56 35 -88 15 -31 33 -73 40 -94 6
-21 18 -41 26 -44 16 -6 48 -62 40 -70 -9 -9 -160 -18 -281 -16 -185 2 -175 1
-175 23 0 11 5 20 12 20 16 0 -24 29 -41 30 -10 0 -12 -9 -7 -35 6 -29 4 -35
-11 -35 -37 0 -39 6 -46 130 -1 14 2 43 7 64 l7 39 -37 -6 c-45 -7 -64 5 -64
42 l0 26 -20 -25 c-12 -16 -23 -21 -27 -15 -5 6 -15 11 -23 10 -12 0 -15 -20
-15 -115 l0 -114 -34 -23 c-19 -13 -39 -22 -45 -20 -8 3 -12 107 -14 320 -2
300 -3 317 -21 317 -10 0 -36 -13 -57 -28 -21 -15 -60 -36 -86 -46 l-48 -18 0
-127 c0 -75 4 -131 11 -138 7 -7 6 -24 -2 -57 -9 -36 -9 -53 0 -72 8 -17 8
-31 1 -44 -6 -12 -10 -231 -10 -604 0 -504 2 -586 14 -586 8 0 17 4 20 9 5 8
62 23 70 18 2 -1 12 5 22 14 11 9 59 30 108 45 76 25 97 37 148 85 l60 55 4
175 c5 216 24 304 58 269 12 -13 12 -28 0 -105 -16 -108 -29 -305 -20 -305 3
0 24 18 46 40 22 22 47 40 55 40 8 0 44 12 80 26 l65 26 0 59 c0 46 3 59 15
59 8 0 14 5 13 12 -2 6 6 16 17 22 11 6 21 19 23 29 2 14 -5 17 -38 17 -35 0
-41 3 -36 18 4 12 -4 28 -24 47 -16 16 -30 32 -30 37 0 16 37 8 55 -12 24 -26
33 -25 41 5 7 29 32 33 40 8 20 -62 27 -72 52 -75 30 -3 49 -44 60 -132 7 -47
8 -49 24 -32 10 10 18 30 18 45 0 34 37 91 66 102 13 4 32 2 48 -6 24 -13 26
-12 26 6 0 11 4 18 9 14 5 -3 9 -18 9 -34 -1 -15 6 -43 16 -61 9 -18 16 -40
16 -49 0 -10 5 -8 13 8 20 40 78 63 173 69 l86 5 -4 -54 c-5 -64 -35 -255 -49
-319 -6 -25 -17 -52 -25 -61 -8 -8 -14 -21 -14 -28 0 -27 -70 11 -124 68 -49
51 -58 43 -50 -44 l7 -75 -32 -6 c-18 -4 -35 -13 -38 -20 -2 -7 -18 -16 -34
-19 -16 -4 -29 -10 -29 -14 0 -5 -21 -14 -47 -21 -27 -7 -52 -16 -58 -20 -14
-10 -89 -35 -115 -39 -5 0 -7 -7 -4 -15 4 -11 -4 -14 -33 -13 -21 0 -60 -5
-88 -11 -27 -6 -90 -17 -139 -26 -48 -8 -95 -21 -102 -27 -8 -6 -43 -12 -77
-14 -35 -1 -69 -5 -75 -9 -7 -4 -12 -4 -12 1 0 4 -39 8 -88 8 -83 -1 -89 -2
-137 -36 l-50 -36 -3 -221 -2 -222 2895 0 2895 0 0 454 0 454 -42 17 c-41 16
-42 16 -60 -7 -10 -13 -21 -32 -24 -43 -6 -24 -62 -65 -88 -65 -9 0 -15 -4
-12 -8 2 -4 -16 -14 -42 -22 -26 -7 -50 -18 -54 -24 -4 -6 -13 -11 -20 -11 -9
0 -15 -27 -20 -90 -10 -133 -28 -166 -26 -48 1 51 0 94 -3 97 -13 13 -41 7
-102 -22 -38 -18 -76 -32 -85 -32 -18 0 -80 -20 -97 -32 -6 -3 -27 -9 -48 -13
-20 -4 -40 -11 -42 -15 -6 -9 -89 -34 -146 -44 -20 -4 -54 -15 -77 -26 -23
-11 -48 -20 -57 -20 -8 0 -15 -4 -15 -8 0 -4 -12 -13 -27 -20 -66 -30 -102
-54 -162 -111 -35 -34 -71 -61 -79 -61 -10 0 -13 -8 -9 -26 4 -20 1 -24 -12
-17 -9 4 -38 7 -66 8 -27 0 -56 5 -62 12 -14 12 -96 6 -101 -9 -4 -8 -15 -19
-46 -46 -11 -9 -74 -12 -234 -12 -241 0 -345 7 -335 23 4 6 -3 8 -18 4 -13 -4
-48 -10 -76 -13 -44 -6 -53 -4 -53 8 0 9 7 22 17 29 9 8 22 29 30 47 11 27 11
36 -1 55 -7 12 -16 38 -19 57 -5 33 0 42 53 100 65 72 85 93 127 132 61 57 73
74 71 99 -3 21 1 24 32 24 19 0 46 8 61 17 14 10 39 21 57 24 18 4 32 9 32 13
0 4 9 7 21 8 11 1 27 7 35 14 23 19 68 20 113 4 33 -11 53 -12 98 -4 67 13
133 37 133 50 0 5 15 9 33 9 19 0 37 3 41 7 7 7 13 9 61 19 33 6 46 11 122 44
60 26 171 124 154 134 -6 4 -94 10 -196 13 l-185 6 -6 33 c-3 18 -3 37 0 43 8
13 66 2 84 -16 8 -8 36 -13 69 -13 47 0 54 2 49 16 -6 15 0 16 39 11 35 -5 45
-4 45 8 0 9 -13 15 -35 17 -20 2 -34 8 -33 13 5 18 124 0 149 -22 10 -8 30
-15 45 -15 43 -1 113 12 120 23 3 5 27 7 54 3 48 -6 117 10 179 42 14 8 33 14
41 14 15 0 46 38 42 52 -5 20 51 33 148 34 58 1 116 5 130 9 14 4 59 9 100 12
53 3 98 13 153 35 l77 32 0 1088 0 1088 -2895 0 -2895 0 0 -584z m1082 322
c-2 -24 2 -79 8 -123 22 -155 23 -201 5 -218 -21 -22 -79 -22 -96 0 -9 10 -13
37 -11 77 1 34 3 116 4 184 l2 122 46 0 45 0 -3 -42z m774 33 c-3 -4 -27 -16
-53 -26 -26 -10 -70 -37 -98 -60 -40 -34 -62 -45 -112 -53 -78 -14 -126 -6
-153 23 -22 23 -22 24 -4 57 40 72 28 68 236 68 104 0 187 -4 184 -9z m3394
-17 c0 -15 4 -23 11 -18 6 3 9 15 6 25 -4 15 0 19 20 19 l26 0 -7 -107 c-5
-71 -13 -114 -22 -124 -16 -18 -19 -85 -4 -94 14 -9 12 -105 -3 -135 -15 -31
-66 -39 -91 -15 -23 24 -21 111 4 153 22 35 26 72 10 88 -7 7 -8 50 -4 122 7
109 8 112 31 112 18 0 23 -5 23 -26z m-1832 -70 c2 -12 12 -24 24 -27 13 -4
19 -11 15 -21 -7 -17 16 -28 40 -19 11 4 14 3 9 -5 -4 -7 -16 -12 -27 -12 -22
0 -24 -11 -7 -28 9 -9 9 -12 0 -12 -7 0 -3 -9 8 -20 23 -23 26 -39 8 -41 -7
-1 -20 -3 -28 -4 -8 -1 -21 -3 -28 -4 -28 -3 1 -21 34 -21 21 0 33 -4 29 -10
-8 -13 8 -13 21 0 6 6 15 6 24 0 18 -11 -4 -14 -90 -10 -62 2 -76 8 -61 23 7
7 5 14 -7 23 -15 12 -14 13 11 14 15 0 27 5 27 10 0 6 -13 10 -29 10 -17 0
-33 5 -36 10 -3 6 0 10 7 10 10 0 10 2 1 8 -16 10 -1 32 34 48 26 13 24 13
-26 8 -50 -6 -53 -5 -47 14 5 16 2 21 -16 24 -13 3 5 8 40 13 34 4 62 12 62
17 0 6 -9 8 -21 5 -11 -3 -28 -3 -37 0 -13 6 -13 8 4 14 32 13 59 6 62 -17z
m-1568 -411 c-1 -10 -11 -38 -23 -63 -20 -40 -32 -50 -112 -90 -100 -50 -96
-44 -143 -203 -19 -63 -19 -71 -5 -104 12 -30 13 -44 2 -80 -6 -24 -15 -45
-18 -48 -7 -4 -60 422 -64 509 -2 48 -1 50 30 58 17 4 96 14 175 22 79 7 146
14 151 15 4 0 7 -7 7 -16z m-377 -145 c58 -469 65 -548 49 -548 -12 0 -65 433
-75 618 -7 120 8 81 26 -70z m2203 -174 c10 -16 24 -37 33 -47 19 -23 22 -69
3 -62 -7 3 -22 5 -32 5 -32 0 -90 60 -119 122 -32 65 -28 74 9 23 14 -18 35
-38 48 -44 l22 -11 -20 40 c-24 47 -25 60 -5 60 8 0 15 6 16 13 1 6 7 -7 14
-29 7 -23 21 -55 31 -70z m-366 84 c0 17 75 16 114 -3 37 -18 49 -35 74 -108
23 -64 55 -105 99 -123 48 -21 52 -17 13 10 -19 13 -45 43 -58 66 -27 50 -25
61 3 19 22 -32 122 -86 169 -91 40 -4 46 -32 33 -149 -12 -112 -11 -266 2
-294 21 -48 31 -108 25 -155 -4 -28 -11 -47 -16 -44 -6 4 -7 -2 -3 -16 4 -13
3 -20 -2 -17 -5 3 -8 -6 -5 -22 3 -23 11 -31 43 -40 22 -7 39 -18 39 -26 0
-23 62 -34 108 -20 44 14 12 -30 -45 -62 -13 -7 -34 -13 -47 -13 -14 0 -28 -4
-31 -10 -20 -33 -27 13 -10 68 6 18 4 22 -16 23 -19 0 -20 2 -7 7 15 6 14 9
-7 19 -23 10 -26 9 -31 -13 -3 -13 -7 -36 -7 -51 -1 -16 -7 -32 -13 -38 -6 -5
-30 -71 -54 -145 -45 -144 -68 -199 -131 -321 -34 -67 -37 -78 -24 -89 19 -16
2 -40 -28 -40 -24 0 -87 -57 -87 -78 0 -7 -5 -10 -10 -7 -6 3 -13 -1 -16 -9
-3 -9 -16 -16 -29 -16 -27 0 -40 -27 -23 -47 9 -11 9 -16 -1 -22 -6 -4 -11
-12 -9 -17 4 -11 -4 -14 -42 -14 -21 0 -30 5 -30 16 0 14 2 15 18 3 15 -13 16
-12 4 3 -10 13 -20 14 -45 7 -40 -11 -40 -11 -31 2 4 8 0 8 -15 0 -11 -7 -21
-16 -21 -22 0 -6 -9 -8 -19 -4 -15 5 -22 -1 -32 -29 -8 -21 -17 -32 -26 -29
-15 6 -18 -18 -3 -35 7 -9 7 -9 -2 -2 -19 16 -30 12 -23 -9 9 -28 -26 -62 -47
-47 -27 20 -31 54 -9 85 11 15 18 31 15 34 -12 11 7 28 20 18 9 -8 12 -3 10
18 -2 28 3 31 55 32 18 1 20 3 10 10 -11 7 -10 11 6 23 11 9 23 16 28 16 4 0
7 7 7 15 0 8 9 15 19 15 14 0 18 5 14 20 -4 14 0 20 10 20 9 0 21 8 26 18 17
33 1 102 -24 102 -7 0 -36 21 -64 46 -28 26 -70 56 -93 68 -32 16 -45 30 -55
60 -12 37 -12 41 9 63 26 28 38 29 68 3 21 -18 25 -19 39 -5 26 26 -2 40 -77
40 -51 0 -66 3 -64 14 1 7 -2 18 -7 25 -11 13 -6 127 8 173 5 17 7 34 4 36 -2
3 3 17 12 31 10 14 15 33 11 41 -3 10 3 17 19 21 14 3 25 14 26 23 0 12 2 12
9 -4 8 -18 9 -17 9 8 1 16 -3 26 -9 22 -5 -3 -10 1 -10 9 0 29 -44 17 -135
-38 l-90 -54 -3 79 c-2 43 -2 115 0 159 l3 79 45 -27 c25 -16 62 -38 83 -51
l37 -23 -6 74 c-4 40 -12 79 -18 87 -5 7 -11 21 -11 30 -1 9 -3 36 -4 61 -1
25 -5 39 -8 33 -2 -7 -11 -13 -19 -13 -17 0 -19 20 -1 20 8 1 7 5 -4 13 -9 7
-14 18 -12 25 3 6 0 12 -5 12 -9 0 -21 27 -26 55 -1 6 5 16 14 23 13 11 12 11
-7 3 -28 -14 -34 -14 -31 2 2 6 -3 11 -10 9 -8 -1 -11 2 -7 8 3 5 1 10 -4 10
-6 0 -11 5 -11 11 0 6 6 9 13 6 6 -2 20 0 29 4 11 6 19 5 24 -3 4 -7 3 -8 -4
-4 -7 4 -12 5 -12 2 0 -14 19 -14 31 1 8 10 9 14 2 10 -8 -5 -11 1 -9 18 1 14
6 28 9 32 12 11 7 23 -9 23 -14 0 -14 3 -4 15 7 8 9 15 5 15 -5 0 0 9 9 19 10
11 24 17 32 14 13 -5 18 7 15 34 -1 6 14 17 34 23 19 6 35 16 35 22 0 6 7 8
15 4 10 -3 15 1 15 11 0 9 3 13 7 10 3 -4 12 1 19 11 10 13 13 13 14 3 0 -10
6 -7 19 7 20 24 41 28 58 11 8 -8 13 -5 18 11 5 17 13 21 31 17 13 -2 25 0 27
6 1 5 15 10 29 10 15 0 29 6 33 15 5 14 7 14 15 2 7 -10 10 -11 10 -2z m1409
-355 c25 -3 53 0 66 7 18 10 53 10 157 2 124 -10 134 -13 156 -37 25 -30 28
-61 8 -84 -8 -9 -17 -28 -21 -42 -5 -21 -2 -27 19 -37 16 -7 26 -20 26 -32 0
-24 -10 -24 -70 -6 -49 15 -50 18 -35 112 4 24 1 33 -11 38 -10 4 -20 2 -24
-4 -3 -6 -20 -14 -38 -19 -29 -9 -31 -7 -34 17 -4 33 -27 39 -57 15 -15 -12
-25 -38 -32 -80 -10 -59 -20 -75 -33 -54 -3 5 -14 7 -25 4 -22 -6 -33 25 -19
52 14 25 -7 45 -24 22 -19 -24 -87 -49 -116 -42 -23 6 -24 4 -20 -30 4 -37 -1
-41 -32 -25 -13 7 -21 26 -25 58 -4 26 -9 55 -12 65 -3 13 2 17 20 17 29 0 61
32 47 46 -26 26 18 58 65 47 11 -2 40 -7 64 -10z m-235 -132 c6 -44 6 -73 -2
-95 -15 -41 -15 -177 -1 -209 9 -20 8 -28 -7 -46 -22 -26 -33 -27 -32 -3 1 77
-6 159 -14 170 -6 7 -8 27 -5 46 4 28 1 38 -20 56 -14 12 -22 27 -19 36 3 9 6
22 6 30 0 8 7 14 15 14 10 0 15 10 15 28 0 35 8 44 35 40 17 -3 22 -14 29 -67z
m136 -284 c0 -7 13 -26 30 -42 25 -24 30 -26 36 -12 3 10 15 17 25 17 16 0 19
-7 19 -41 0 -39 -23 -103 -41 -115 -5 -3 -27 14 -50 38 -33 35 -40 48 -36 73
2 16 0 37 -6 46 -11 18 -3 49 13 49 5 0 10 -6 10 -13z m546 -157 c3 -117 1
-155 -8 -162 -19 -12 -388 -10 -388 2 0 6 11 10 25 10 24 0 30 9 26 39 -2 7 1
20 5 30 4 9 8 27 8 41 1 23 5 25 40 23 22 -2 45 2 53 8 10 9 19 5 39 -15 15
-14 32 -26 39 -26 7 0 19 -7 26 -16 12 -14 9 -20 -16 -40 -25 -20 -27 -24 -12
-30 20 -7 124 -1 134 9 3 4 7 53 8 109 3 154 4 182 10 176 3 -3 8 -74 11 -158z
m-3337 -558 c35 -65 16 -145 -38 -157 -30 -6 -66 9 -75 31 -3 7 6 26 19 44 13
17 26 47 29 66 6 28 11 34 31 34 13 0 29 -8 34 -18z m-521 -504 c11 -15 1 -97
-20 -168 l-14 -45 -289 -2 c-177 -2 -296 1 -305 7 -13 8 -10 14 15 38 17 15
38 31 48 35 11 4 15 12 11 19 -6 10 -4 10 8 0 10 -8 17 -9 20 -3 1 6 12 12 23
14 11 1 27 7 35 12 18 11 249 24 270 15 8 -4 50 -5 94 -2 l78 4 -5 39 c-6 48
8 65 31 37z m457 -106 c-9 -37 -24 -52 -70 -72 l-40 -18 -37 41 c-61 66 -55
75 58 75 l96 1 -7 -27z m3159 -262 c63 -30 136 -84 136 -101 0 -15 -210 -12
-211 4 -1 6 -3 21 -5 32 -19 108 -15 111 80 65z"/>
<path d="M4431 2729 c-18 -15 -26 -17 -32 -8 -10 16 -217 4 -281 -17 -35 -11
-48 -21 -52 -40 -4 -14 -4 -29 -1 -34 3 -5 0 -12 -5 -15 -8 -5 -5 -14 6 -26
17 -19 17 -21 0 -54 -15 -28 -17 -46 -11 -100 6 -62 10 -69 53 -110 107 -101
96 -95 161 -95 33 0 62 4 65 9 3 4 27 14 53 21 76 21 120 46 127 75 3 13 22
39 41 57 46 42 62 94 46 150 -14 44 -26 60 -54 71 -10 4 -16 11 -13 16 4 5
-11 7 -33 4 -23 -3 -41 -1 -45 6 -5 7 1 11 14 11 11 0 23 7 26 15 5 13 9 13
21 3 12 -10 17 -9 27 3 6 9 17 14 24 11 11 -3 11 -1 0 17 -7 12 -20 22 -28 22
-48 4 -61 7 -72 17 -9 7 -20 5 -37 -9z"/>
</g>
</svg>
